# xmcd
#
# Track frame offsets:
#	150
#	86068
#	115845
#
# Disc length: 2023 seconds
#
# Revision: 0
# Processed by: cddbd v1.5PL3 Copyright (c) Steve Scherf et al.
# Submitted via: EasyCDDAExtractor 5.0.4.1
#
DISCID=1d07e503
DTITLE=Led Zeppelin - Earl's Court Arena 2405 Evoluzione CD4
DYEAR=1975
DGENRE=Blues
TTITLE0=Starway To Heaven
TTITLE1=Whole Lotta Love
TTITLE2=Black Dog
EXTD=segurarte@hotmail.com
EXTT0=
EXTT1=
EXTT2=
PLAYORDER=
